{
.appVersion = "3151";
.formatVersion = 3;
date = "2023-05-09 18:32:41 +0000";
familyName = Flygature;
fontMaster = (
{
id = m01;
metricValues = (
{
over = 16;
pos = 800;
},
{
over = 16;
pos = 700;
},
{
over = 16;
pos = 500;
},
{
over = -16;
},
{
over = -16;
pos = -200;
}
);
name = Regular;
userData = {
GSOffsetHorizontal = 8;
GSOffsetKeepCompatible = 1;
GSOffsetVertical = 8;
};
}
);
glyphs = (
{
glyphname = A;
lastChange = "2023-05-14 16:47:04 +0000";
layers = (
{
layerId = m01;
shapes = (
{
closed = 1;
nodes = (
(16,0,l),
(126,0,l),
(366,700,l),
(256,700,l)
);
},
{
closed = 1;
nodes = (
(516,0,l),
(626,0,l),
(386,700,l),
(276,700,l)
);
},
{
closed = 1;
nodes = (
(140,145,l),
(506,145,l),
(506,237,l),
(140,237,l)
);
}
);
width = 642;
}
);
unicode = 65;
},
{
glyphname = B;
lastChange = "2023-05-13 07:56:29 +0000";
layers = (
{
layerId = m01;
shapes = (
{
closed = 1;
nodes = (
(310,305,l),
(392,304,o),
(437,267,o),
(437,210,cs),
(437,139,o),
(402,100,o),
(320,100,c),
(320,0,l),
(477,0,o),
(555,69,o),
(555,210,cs),
(555,307,o),
(467,361,o),
(310,360,cs),
(310,360,o),
(310,360,o),
(309,360,c),
(309,395,l)
);
},
{
closed = 1;
nodes = (
(299,600,l),
(300,600,o),
(300,600,o),
(300,600,cs),
(382,600,o),
(417,558,o),
(417,500,cs),
(417,437,o),
(392,396,o),
(310,395,cs),
(310,395,o),
(310,395,o),
(309,395,c),
(310,330,l),
(467,329,o),
(535,390,o),
(535,500,cs),
(535,629,o),
(457,700,o),
(300,700,cs),
(300,700,o),
(300,700,o),
(299,700,c)
);
},
{
closed = 1;
nodes = (
(75,0,l),
(185,0,l),
(185,700,l),
(75,700,l)
);
},
{
closed = 1;
nodes = (
(178,0,l),
(320,0,l),
(320,100,l),
(178,100,l)
);
},
{
closed = 1;
nodes = (
(178,600,l),
(299,600,l),
(299,700,l),
(178,700,l)
);
},
{
closed = 1;
nodes = (
(128,305,l),
(310,305,l),
(310,395,l),
(128,395,l)
);
}
);
width = 612;
}
);
unicode = 66;
},
{
glyphname = C;
lastChange = "2023-05-13 07:56:41 +0000";
layers = (
{
layerId = m01;
shapes = (
{
closed = 1;
nodes = (
(491,199,l),
(491,147,o),
(428,100,o),
(358,100,cs),
(240,100,o),
(166,200,o),
(166,360,cs),
(166,507,o),
(240,600,o),
(358,600,cs),
(426,600,o),
(486,543,o),
(486,480,c),
(607,480,l),
(607,602,o),
(490,710,o),
(358,710,cs),
(168,710,o),
(48,575,o),
(48,360,cs),
(48,133,o),
(168,-10,o),
(358,-10,cs),
(494,-10,o),
(615,89,o),
(615,199,c)
);
}
);
width = 651;
}
);
unicode = 67;
},
{
glyphname = D;
lastChange = "2023-05-13 07:56:47 +0000";
layers = (
{
layerId = m01;
shapes = (
{
closed = 1;
nodes = (
(299,590,l),
(300,590,o),
(300,590,o),
(300,590,cs),
(433,590,o),
(507,506,o),
(507,355,cs),
(507,193,o),
(437,102,o),
(310,100,cs),
(310,100,o),
(310,100,o),
(309,100,c),
(310,0,l),
(512,-1,o),
(625,126,o),
(625,355,cs),
(625,577,o),
(509,700,o),
(300,700,cs),
(300,700,o),
(300,700,o),
(299,700,c)
);
},
{
closed = 1;
nodes = (
(75,0,l),
(185,0,l),
(185,700,l),
(75,700,l)
);
},
{
closed = 1;
nodes = (
(178,590,l),
(299,590,l),
(299,700,l),
(178,700,l)
);
},
{
closed = 1;
nodes = (
(128,0,l),
(310,0,l),
(310,100,l),
(128,100,l)
);
}
);
width = 673;
}
);
unicode = 68;
},
{
glyphname = E;
lastChange = "2023-05-13 07:56:54 +0000";
layers = (
{
layerId = m01;
shapes = (
{
closed = 1;
nodes = (
(75,0,l),
(185,0,l),
(185,700,l),
(75,700,l)
);
},
{
closed = 1;
nodes = (
(178,0,l),
(495,0,l),
(495,112,l),
(178,112,l)
);
},
{
closed = 1;
nodes = (
(178,588,l),
(495,588,l),
(495,700,l),
(178,700,l)
);
},
{
closed = 1;
nodes = (
(128,295,l),
(445,295,l),
(445,407,l),
(128,407,l)
);
}
);
width = 554;
}
);
unicode = 69;
},
{
glyphname = F;
lastChange = "2023-05-13 07:57:00 +0000";
layers = (
{
layerId = m01;
shapes = (
{
closed = 1;
nodes = (
(75,0,l),
(185,0,l),
(185,700,l),
(75,700,l)
);
},
{
closed = 1;
nodes = (
(178,588,l),
(495,588,l),
(495,700,l),
(178,700,l)
);
},
{
closed = 1;
nodes = (
(148,295,l),
(455,295,l),
(455,407,l),
(148,407,l)
);
}
);
width = 532;
}
);
unicode = 70;
},
{
glyphname = G;
lastChange = "2023-05-13 21:19:42 +0000";
layers = (
{
layerId = m01;
shapes = (
{
closed = 1;
nodes = (
(362,275,l),
(536,275,l),
(536,156,o),
(474,90,o),
(363,90,cs),
(240,90,o),
(171,186,o),
(171,360,cs),
(171,517,o),
(240,605,o),
(363,605,cs),
(447,605,o),
(506,561,o),
(506,500,c),
(627,500,l),
(627,623,o),
(518,710,o),
(363,710,cs),
(167,710,o),
(58,585,o),
(58,360,cs),
(58,122,o),
(167,-10,o),
(363,-10,cs),
(455,-10,o),
(526,28,o),
(562,97,c),
(562,0,l),
(638,0,l),
(638,360,l),
(362,360,l)
);
}
);
width = 709;
}
);
unicode = 71;
},
{
glyphname = H;
lastChange = "2023-05-13 08:00:56 +0000";
layers = (
{
layerId = m01;
shapes = (
{
closed = 1;
nodes = (
(80,0,l),
(190,0,l),
(190,700,l),
(80,700,l)
);
},
{
closed = 1;
nodes = (
(500,0,l),
(610,0,l),
(610,700,l),
(500,700,l)
);
},
{
closed = 1;
nodes = (
(134,295,l),
(560,295,l),
(560,407,l),
(134,407,l)
);
}
);
width = 690;
}
);
unicode = 72;
},
{
glyphname = I;
lastChange = "2023-05-13 07:57:13 +0000";
layers = (
{
layerId = m01;
shapes = (
{
closed = 1;
nodes = (
(85,0,l),
(195,0,l),
(195,700,l),
(85,700,l)
);
}
);
width = 280;
}
);
unicode = 73;
},
{
glyphname = J;
lastChange = "2023-05-13 18:37:46 +0000";
layers = (
{
layerId = m01;
shapes = (
{
closed = 1;
nodes = (
(310,230,l),
(430,230,l),
(430,700,l),
(310,700,l)
);
},
{
closed = 1;
nodes = (
(355,-10,o),
(430,76,o),
(430,230,c),
(16,230,l),
(16,76,o),
(89,-10,o),
(220,-10,cs)
);
},
{
closed = 1;
nodes = (
(159,95,o),
(126,146,o),
(126,230,c),
(310,230,l),
(310,146,o),
(277,95,o),
(218,95,cs)
);
}
);
width = 503;
}
);
unicode = 74;
},
{
glyphname = K;
lastChange = "2023-05-13 07:58:02 +0000";
layers = (
{
layerId = m01;
shapes = (
{
closed = 1;
nodes = (
(75,0,l),
(185,0,l),
(185,700,l),
(75,700,l)
);
},
{
closed = 1;
nodes = (
(625,0,l),
(310,360,l),
(180,360,l),
(485,0,l)
);
},
{
closed = 1;
nodes = (
(310,360,l),
(595,700,l),
(465,700,l),
(180,360,l)
);
}
);
width = 621;
}
);
unicode = 75;
},
{
glyphname = L;
lastChange = "2023-05-13 07:58:10 +0000";
layers = (
{
layerId = m01;
shapes = (
{
closed = 1;
nodes = (
(75,0,l),
(185,0,l),
(185,700,l),
(75,700,l)
);
},
{
closed = 1;
nodes = (
(178,0,l),
(465,0,l),
(465,112,l),
(178,112,l)
);
}
);
width = 502;
}
);
unicode = 76;
},
{
glyphname = M;
lastChange = "2023-05-13 07:58:23 +0000";
layers = (
{
layerId = m01;
shapes = (
{
closed = 1;
nodes = (
(75,0,l),
(185,0,l),
(185,700,l),
(75,700,l)
);
},
{
closed = 1;
nodes = (
(95,700,l),
(365,0,l),
(477,0,l),
(212,700,l)
);
},
{
closed = 1;
nodes = (
(655,700,l),
(655,0,l),
(765,0,l),
(765,700,l)
);
},
{
closed = 1;
nodes = (
(363,0,l),
(475,0,l),
(745,700,l),
(628,700,l)
);
}
);
width = 840;
}
);
unicode = 77;
},
{
glyphname = N;
lastChange = "2023-05-13 07:53:56 +0000";
layers = (
{
layerId = m01;
shapes = (
{
closed = 1;
nodes = (
(80,0,l),
(190,0,l),
(190,700,l),
(80,700,l)
);
},
{
closed = 1;
nodes = (
(498,0,l),
(608,0,l),
(608,700,l),
(498,700,l)
);
},
{
closed = 1;
nodes = (
(80,700,l),
(498,0,l),
(608,0,l),
(197,700,l)
);
}
);
width = 688;
}
);
unicode = 78;
},
{
glyphname = O;
lastChange = "2023-05-13 07:50:25 +0000";
layers = (
{
layerId = m01;
shapes = (
{
closed = 1;
nodes = (
(523,-10,o),
(655,143,o),
(655,360,cs),
(655,565,o),
(523,710,o),
(350,710,cs),
(177,710,o),
(45,565,o),
(45,360,cs),
(45,143,o),
(177,-10,o),
(350,-10,cs)
);
},
{
closed = 1;
nodes = (
(236,98,o),
(161,193,o),
(161,360,cs),
(161,514,o),
(236,602,o),
(350,602,cs),
(464,602,o),
(539,514,o),
(539,360,cs),
(539,193,o),
(464,98,o),
(350,98,cs)
);
}
);
width = 700;
}
);
unicode = 79;
},
{
glyphname = P;
lastChange = "2023-05-13 07:58:51 +0000";
layers = (
{
layerId = m01;
shapes = (
{
closed = 1;
nodes = (
(299,590,l),
(300,590,o),
(300,590,o),
(300,590,cs),
(366,590,o),
(417,548,o),
(417,480,cs),
(417,407,o),
(376,361,o),
(310,360,cs),
(310,360,o),
(310,360,o),
(309,360,c),
(310,260,l),
(448,259,o),
(535,344,o),
(535,480,cs),
(535,615,o),
(438,700,o),
(300,700,cs),
(300,700,o),
(300,700,o),
(299,700,c)
);
},
{
closed = 1;
nodes = (
(75,0,l),
(185,0,l),
(185,700,l),
(75,700,l)
);
},
{
closed = 1;
nodes = (
(178,590,l),
(299,590,l),
(299,700,l),
(178,700,l)
);
},
{
closed = 1;
nodes = (
(128,260,l),
(310,260,l),
(310,360,l),
(128,360,l)
);
}
);
width = 592;
}
);
unicode = 80;
},
{
glyphname = Q;
lastChange = "2023-05-13 07:58:56 +0000";
layers = (
{
layerId = m01;
shapes = (
{
closed = 1;
nodes = (
(525,-10,o),
(657,143,o),
(657,360,cs),
(657,565,o),
(525,710,o),
(352,710,cs),
(179,710,o),
(47,565,o),
(47,360,cs),
(47,143,o),
(179,-10,o),
(352,-10,cs)
);
},
{
closed = 1;
nodes = (
(238,98,o),
(163,193,o),
(163,360,cs),
(163,514,o),
(238,602,o),
(352,602,cs),
(466,602,o),
(541,514,o),
(541,360,cs),
(541,193,o),
(466,98,o),
(352,98,cs)
);
},
{
closed = 1;
nodes = (
(510,-130,l),
(651,-130,l),
(478,59,l),
(337,59,l)
);
}
);
width = 704;
}
);
unicode = 81;
},
{
glyphname = R;
lastChange = "2023-05-13 07:59:05 +0000";
layers = (
{
layerId = m01;
shapes = (
{
closed = 1;
nodes = (
(309,590,l),
(310,590,o),
(310,590,o),
(310,590,cs),
(376,590,o),
(427,548,o),
(427,480,cs),
(427,407,o),
(386,361,o),
(320,360,cs),
(320,360,o),
(320,360,o),
(319,360,c),
(320,265,l),
(458,264,o),
(545,344,o),
(545,480,cs),
(545,615,o),
(448,700,o),
(310,700,cs),
(310,700,o),
(310,700,o),
(309,700,c)
);
},
{
closed = 1;
nodes = (
(75,0,l),
(185,0,l),
(185,700,l),
(75,700,l)
);
},
{
closed = 1;
nodes = (
(178,590,l),
(309,590,l),
(309,700,l),
(178,700,l)
);
},
{
closed = 1;
nodes = (
(128,265,l),
(320,265,l),
(320,360,l),
(128,360,l)
);
},
{
closed = 1;
nodes = (
(257,323,l),
(463,0,l),
(595,0,l),
(384,323,l)
);
}
);
width = 631;
}
);
unicode = 82;
},
{
glyphname = S;
lastChange = "2023-05-14 16:44:49 +0000";
layers = (
{
background = {
shapes = (
{
closed = 1;
nodes = (
(439,179,l),
(419,128,o),
(370,100,o),
(301,100,cs),
(187,100,o),
(124,193,o),
(124,360,cs),
(124,514,o),
(187,600,o),
(301,600,cs),
(375,600,o),
(426,564,o),
(444,500,c),
(565,500,l),
(531,635,o),
(437,710,o),
(301,710,cs),
(111,710,o),
(6,585,o),
(6,360,cs),
(6,122,o),
(111,-10,o),
(301,-10,cs),
(430,-10,o),
(523,58,o),
(563,179,c)
);
},
{
closed = 1;
nodes = (
(79,58,o),
(172,-10,o),
(301,-10,cs),
(491,-10,o),
(596,122,o),
(596,360,cs),
(596,585,o),
(491,710,o),
(301,710,cs),
(165,710,o),
(71,635,o),
(37,500,c),
(158,500,l),
(176,564,o),
(227,600,o),
(301,600,cs),
(415,600,o),
(478,514,o),
(478,360,cs),
(478,193,o),
(415,100,o),
(301,100,cs),
(232,100,o),
(183,128,o),
(163,179,c),
(39,179,l)
);
}
);
};
layerId = m01;
shapes = (
{
closed = 1;
nodes = (
(461,710,o),
(556,625,o),
(556,489,c),
(444,489,l),
(444,560,o),
(390,609,o),
(310,609,cs),
(228,609,o),
(180,564,o),
(180,507,cs),
(180,360,o),
(577,442,o),
(577,195,cs),
(577,63,o),
(483,-10,o),
(315,-10,cs),
(156,-10,o),
(54,79,o),
(50,222,c),
(169,222,l),
(169,144,o),
(228,91,o),
(315,91,cs),
(406,91,o),
(459,134,o),
(459,195,cs),
(459,333,o),
(63,246,o),
(63,507,cs),
(63,635,o),
(151,710,o),
(310,710,cs)
);
}
);
width = 627;
}
);
unicode = 83;
},
{
glyphname = T;
lastChange = "2023-05-14 16:46:29 +0000";
layers = (
{
layerId = m01;
shapes = (
{
closed = 1;
nodes = (
(240,0,l),
(350,0,l),
(350,700,l),
(240,700,l)
);
},
{
closed = 1;
nodes = (
(20,598,l),
(570,598,l),
(570,700,l),
(20,700,l)
);
}
);
width = 590;
}
);
unicode = 84;
},
{
glyphname = U;
lastChange = "2023-05-13 07:59:48 +0000";
layers = (
{
layerId = m01;
shapes = (
{
closed = 1;
nodes = (
(73,270,l),
(193,270,l),
(193,700,l),
(73,700,l)
);
},
{
closed = 1;
nodes = (
(487,270,l),
(607,270,l),
(607,700,l),
(487,700,l)
);
},
{
closed = 1;
nodes = (
(512,-10,o),
(607,90,o),
(607,270,c),
(73,270,l),
(73,90,o),
(169,-10,o),
(342,-10,cs)
);
},
{
closed = 1;
nodes = (
(246,100,o),
(193,161,o),
(193,270,c),
(487,270,l),
(487,161,o),
(434,100,o),
(340,100,cs)
);
}
);
width = 680;
}
);
unicode = 85;
},
{
glyphname = V;
lastChange = "2023-05-14 16:46:10 +0000";
layers = (
{
layerId = m01;
shapes = (
{
closed = 1;
nodes = (
(366,0,l),
(161,700,l),
(36,700,l),
(256,0,l)
);
},
{
closed = 1;
nodes = (
(386,0,l),
(606,700,l),
(481,700,l),
(276,0,l)
);
}
);
width = 642;
}
);
unicode = 86;
},
{
glyphname = W;
lastChange = "2023-05-14 16:46:40 +0000";
layers = (
{
layerId = m01;
shapes = (
{
closed = 1;
nodes = (
(326,0,l),
(170,700,l),
(46,700,l),
(216,0,l)
);
},
{
closed = 1;
nodes = (
(346,0,l),
(516,700,l),
(416,700,l),
(236,0,l)
);
},
{
closed = 1;
nodes = (
(715,0,l),
(545,700,l),
(445,700,l),
(615,0,l)
);
},
{
closed = 1;
nodes = (
(735,0,l),
(925,700,l),
(801,700,l),
(625,0,l)
);
}
);
width = 971;
}
);
unicode = 87;
},
{
glyphname = X;
lastChange = "2023-05-13 08:00:44 +0000";
layers = (
{
layerId = m01;
shapes = (
{
closed = 1;
nodes = (
(646,0,l),
(206,700,l),
(66,700,l),
(516,0,l)
);
},
{
closed = 1;
nodes = (
(176,0,l),
(626,700,l),
(486,700,l),
(46,0,l)
);
}
);
width = 692;
}
);
unicode = 88;
},
{
glyphname = Y;
lastChange = "2023-05-14 16:46:36 +0000";
layers = (
{
layerId = m01;
shapes = (
{
closed = 1;
nodes = (
(366,300,l),
(156,700,l),
(26,700,l),
(256,300,l)
);
},
{
closed = 1;
nodes = (
(366,300,l),
(596,700,l),
(466,700,l),
(256,300,l)
);
},
{
closed = 1;
nodes = (
(256,0,l),
(366,0,l),
(366,300,l),
(256,300,l)
);
}
);
width = 622;
}
);
unicode = 89;
},
{
glyphname = Z;
lastChange = "2023-05-14 16:45:06 +0000";
layers = (
{
layerId = m01;
shapes = (
{
closed = 1;
nodes = (
(77,588,l),
(531,588,l),
(531,700,l),
(77,700,l)
);
},
{
closed = 1;
nodes = (
(67,0,l),
(543,0,l),
(543,112,l),
(67,112,l)
);
},
{
closed = 1;
nodes = (
(190,112,l),
(531,588,l),
(401,588,l),
(67,112,l)
);
}
);
width = 610;
}
);
unicode = 90;
},
{
glyphname = a;
lastChange = "2023-05-14 16:50:51 +0000";
layers = (
{
layerId = m01;
shapes = (
{
closed = 1;
nodes = (
(26,340,l),
(73,340,l),
(99,414,l),
(250,414,l),
(277,340,l),
(324,340,l),
(194,703,l),
(156,703,l)
);
},
{
closed = 1;
nodes = (
(174,632,l),
(239,454,l),
(112,454,l)
);
}
);
width = 349;
}
);
unicode = 97;
},
{
glyphname = b;
lastChange = "2023-05-13 18:30:30 +0000";
layers = (
{
layerId = m01;
shapes = (
{
closed = 1;
nodes = (
(240,170,l),
(342,176,o),
(385,221,o),
(385,319,cs),
(385,369,o),
(353,417,o),
(284,435,c),
(346,454,o),
(368,500,o),
(368,560,cs),
(368,649,o),
(325,694,o),
(222,700,cs),
(215,700,o),
(206,700,o),
(198,700,cs),
(53,700,l),
(53,170,l)
);
},
{
closed = 1;
nodes = (
(90,419,l),
(238,419,l),
(298,410,o),
(341,374,o),
(341,319,cs),
(341,253,o),
(303,214,o),
(240,207,c),
(90,207,l)
);
},
{
closed = 1;
nodes = (
(90,663,l),
(198,663,ls),
(279,663,o),
(324,622,o),
(324,560,cs),
(324,497,o),
(291,452,o),
(206,452,cs),
(90,452,l)
);
}
);
width = 422;
}
);
unicode = 98;
},
{
glyphname = c;
lastChange = "2023-05-14 16:38:18 +0000";
layers = (
{
layerId = m01;
shapes = (
{
closed = 1;
nodes = (
(386,314,l),
(386,261,o),
(323,213,o),
(253,213,cs),
(152,213,o),
(80,309,o),
(80,444,cs),
(80,581,o),
(152,678,o),
(253,678,cs),
(322,678,o),
(383,623,o),
(383,561,c),
(424,561,l),
(424,649,o),
(348,719,o),
(253,719,cs),
(128,719,o),
(39,605,o),
(39,444,cs),
(39,277,o),
(122,172,o),
(253,172,cs),
(345,172,o),
(427,239,o),
(427,314,c)
);
}
);
width = 460;
}
);
unicode = 99;
},
{
glyphname = d;
lastChange = "2023-05-13 18:35:15 +0000";
layers = (
{
layerId = m01;
shapes = (
{
closed = 1;
nodes = (
(61,700,l),
(61,170,l),
(231,170,ls),
(388,170,o),
(467,259,o),
(467,439,cs),
(467,613,o),
(385,700,o),
(223,700,cs)
);
},
{
closed = 1;
nodes = (
(103,659,l),
(223,659,ls),
(348,659,o),
(419,578,o),
(419,439,cs),
(419,294,o),
(352,213,o),
(231,212,cs),
(103,212,l)
);
}
);
width = 515;
}
);
unicode = 100;
},
{
glyphname = e;
lastChange = "2023-05-14 16:47:39 +0000";
layers = (
{
layerId = m01;
shapes = (
{
closed = 1;
nodes = (
(71,340,l),
(283,340,l),
(283,386,l),
(116,386,l),
(116,500,l),
(256,500,l),
(256,546,l),
(116,546,l),
(116,658,l),
(283,658,l),
(283,703,l),
(71,703,l)
);
}
);
width = 354;
}
);
unicode = 101;
},
{
glyphname = f;
lastChange = "2023-05-13 18:19:55 +0000";
layers = (
{
layerId = m01;
shapes = (
{
closed = 1;
nodes = (
(61,170,l),
(103,170,l),
(103,415,l),
(327,415,l),
(327,458,l),
(103,458,l),
(103,657,l),
(360,657,l),
(360,700,l),
(61,700,l)
);
}
);
width = 389;
}
);
unicode = 102;
},
{
glyphname = g;
lastChange = "2023-05-14 16:49:05 +0000";
layers = (
{
layerId = m01;
shapes = (
{
closed = 1;
nodes = (
(291,381,l),
(434,381,l),
(437,274,o),
(368,198,o),
(267,198,cs),
(158,198,o),
(81,293,o),
(81,427,cs),
(81,568,o),
(158,668,o),
(267,668,cs),
(346,668,o),
(403,627,o),
(403,568,c),
(452,568,l),
(452,650,o),
(375,709,o),
(267,709,cs),
(133,709,o),
(39,592,o),
(39,427,cs),
(39,272,o),
(133,162,o),
(267,162,cs),
(341,162,o),
(409,199,o),
(432,251,c),
(432,170,l),
(470,170,l),
(470,420,l),
(291,420,l)
);
}
);
width = 519;
}
);
unicode = 103;
},
{
glyphname = h;
lastChange = "2023-05-13 18:19:55 +0000";
layers = (
{
layerId = m01;
shapes = (
{
closed = 1;
nodes = (
(61,170,l),
(103,170,l),
(103,415,l),
(409,415,l),
(409,170,l),
(451,170,l),
(451,700,l),
(409,700,l),
(409,458,l),
(103,458,l),
(103,700,l),
(61,700,l)
);
}
);
width = 512;
}
);
unicode = 104;
},
{
glyphname = i;
lastChange = "2023-05-14 16:48:05 +0000";
layers = (
{
layerId = m01;
shapes = (
{
closed = 1;
nodes = (
(82,340,l),
(127,340,l),
(127,703,l),
(82,703,l)
);
}
);
width = 209;
}
);
unicode = 105;
},
{
glyphname = j;
lastChange = "2023-05-14 16:49:38 +0000";
layers = (
{
layerId = m01;
shapes = (
{
closed = 1;
nodes = (
(259,336,ls),
(259,244,o),
(222,199,o),
(154,199,cs),
(95,199,o),
(61,244,o),
(54,311,c),
(12,311,l),
(19,210,o),
(65,162,o),
(156,162,cs),
(252,162,o),
(305,224,o),
(305,336,cs),
(305,700,l),
(259,700,l)
);
}
);
width = 365;
}
);
unicode = 106;
},
{
glyphname = k;
lastChange = "2023-05-13 18:19:55 +0000";
layers = (
{
layerId = m01;
shapes = (
{
closed = 1;
nodes = (
(106,170,l),
(61,170,l),
(61,493,l),
(363,170,l),
(415,170,l),
(158,444,l),
(392,700,l),
(339,700,l),
(61,393,l),
(61,700,l),
(106,700,l)
);
}
);
width = 427;
}
);
unicode = 107;
},
{
glyphname = l;
lastChange = "2023-05-14 16:50:15 +0000";
layers = (
{
layerId = m01;
shapes = (
{
closed = 1;
nodes = (
(61,170,l),
(335,170,l),
(335,213,l),
(103,213,l),
(103,700,l),
(61,700,l)
);
}
);
width = 364;
}
);
unicode = 108;
},
{
glyphname = m;
lastChange = "2023-05-13 21:13:17 +0000";
layers = (
{
layerId = m01;
shapes = (
{
closed = 1;
nodes = (
(61,170,l),
(103,170,l),
(103,666,l),
(302,170,l),
(310,170,l),
(335,170,l),
(342,170,l),
(542,666,l),
(542,170,l),
(583,170,l),
(583,700,l),
(512,700,l),
(322,223,l),
(133,700,l),
(61,700,l)
);
}
);
width = 638;
}
);
unicode = 109;
},
{
glyphname = n;
lastChange = "2023-05-13 18:19:55 +0000";
layers = (
{
layerId = m01;
shapes = (
{
closed = 1;
nodes = (
(61,170,l),
(103,170,l),
(103,675,l),
(397,170,l),
(439,170,l),
(449,170,l),
(449,700,l),
(408,700,l),
(408,225,l),
(136,700,l),
(61,700,l)
);
}
);
width = 511;
}
);
unicode = 110;
},
{
glyphname = o;
lastChange = "2023-05-14 16:50:13 +0000";
layers = (
{
layerId = m01;
shapes = (
{
closed = 1;
nodes = (
(280,329,o),
(346,406,o),
(346,522,cs),
(346,631,o),
(281,703,o),
(189,703,cs),
(98,703,o),
(31,631,o),
(31,522,cs),
(31,406,o),
(98,329,o),
(189,329,cs)
);
},
{
closed = 1;
nodes = (
(121,374,o),
(80,426,o),
(80,522,cs),
(80,611,o),
(122,660,o),
(189,660,cs),
(257,660,o),
(298,611,o),
(298,522,cs),
(298,426,o),
(256,374,o),
(189,374,cs)
);
}
);
width = 377;
}
);
unicode = 111;
},
{
glyphname = p;
lastChange = "2023-05-13 18:19:55 +0000";
layers = (
{
layerId = m01;
shapes = (
{
closed = 1;
nodes = (
(61,700,l),
(61,170,l),
(103,170,l),
(103,386,l),
(231,386,ls),
(336,386,o),
(393,441,o),
(393,543,cs),
(393,643,o),
(328,700,o),
(223,700,cs),
(222,700,l)
);
},
{
closed = 1;
nodes = (
(103,659,l),
(222,659,l),
(223,659,ls),
(293,659,o),
(349,614,o),
(349,543,cs),
(349,470,o),
(301,423,o),
(231,423,cs),
(230,423,l),
(103,423,l)
);
}
);
width = 422;
}
);
unicode = 112;
},
{
glyphname = q;
lastChange = "2023-05-13 18:19:55 +0000";
layers = (
{
layerId = m01;
shapes = (
{
closed = 1;
nodes = (
(274,162,o),
(288,163,o),
(304,168,c),
(400,62,l),
(454,62,l),
(342,179,l),
(430,221,o),
(486,313,o),
(486,444,cs),
(486,604,o),
(391,709,o),
(259,709,cs),
(126,709,o),
(31,604,o),
(31,444,cs),
(31,273,o),
(127,162,o),
(259,162,cs)
);
},
{
closed = 1;
nodes = (
(78,584,o),
(149,668,o),
(259,668,cs),
(368,668,o),
(439,584,o),
(439,444,cs),
(439,293,o),
(369,202,o),
(259,202,cs),
(148,202,o),
(78,293,o),
(78,444,cs)
);
}
);
width = 517;
}
);
unicode = 113;
},
{
glyphname = r;
lastChange = "2023-05-14 16:50:19 +0000";
layers = (
{
layerId = m01;
shapes = (
{
closed = 1;
nodes = (
(61,700,l),
(61,170,l),
(103,170,l),
(103,390,l),
(231,390,l),
(371,170,l),
(422,170,l),
(277,392,l),
(359,406,o),
(401,454,o),
(401,543,cs),
(401,643,o),
(336,700,o),
(231,700,cs),
(230,700,l)
);
},
{
closed = 1;
nodes = (
(103,659,l),
(230,659,l),
(231,659,ls),
(298,659,o),
(353,614,o),
(353,543,cs),
(353,470,o),
(309,423,o),
(240,423,cs),
(239,423,l),
(103,423,l)
);
}
);
width = 459;
}
);
unicode = 114;
},
{
glyphname = s;
lastChange = "2023-05-14 16:38:29 +0000";
layers = (
{
layerId = m01;
shapes = (
{
closed = 1;
nodes = (
(316,162,o),
(375,211,o),
(375,299,cs),
(375,449,o),
(105,465,o),
(105,575,cs),
(105,637,o),
(146,671,o),
(220,671,cs),
(276,671,o),
(318,625,o),
(321,559,c),
(369,559,l),
(366,647,o),
(304,709,o),
(220,709,cs),
(115,709,o),
(56,661,o),
(56,575,cs),
(56,429,o),
(329,421,o),
(329,299,cs),
(329,235,o),
(287,199,o),
(211,199,cs),
(148,199,o),
(101,247,o),
(99,315,c),
(54,315,l),
(54,225,o),
(119,162,o),
(211,162,cs)
);
}
);
width = 428;
}
);
unicode = 115;
},
{
glyphname = germandbls;
lastChange = "2023-05-14 16:25:36 +0000";
layers = (
{
layerId = m01;
shapes = (
{
closed = 1;
nodes = (
(71,0,l),
(120,0,l),
(120,415,l),
(120,575,ls),
(120,637,o),
(161,672,o),
(235,672,cs),
(389,671,l),
(389,709,l),
(235,709,ls),
(130,709,o),
(71,661,o),
(71,575,cs)
);
},
{
closed = 1;
nodes = (
(486,162,o),
(545,211,o),
(545,299,cs),
(545,449,o),
(275,465,o),
(275,575,cs),
(275,637,o),
(316,671,o),
(390,671,cs),
(446,671,o),
(488,625,o),
(491,559,c),
(539,559,l),
(536,647,o),
(474,709,o),
(390,709,cs),
(285,709,o),
(226,661,o),
(226,575,cs),
(226,429,o),
(499,421,o),
(499,299,cs),
(499,235,o),
(457,199,o),
(381,199,cs),
(318,199,o),
(271,247,o),
(269,315,c),
(224,315,l),
(224,225,o),
(289,162,o),
(381,162,cs)
);
}
);
width = 613;
}
);
unicode = 223;
},
{
glyphname = t;
lastChange = "2023-05-14 16:38:54 +0000";
layers = (
{
layerId = m01;
shapes = (
{
closed = 1;
nodes = (
(0,700,l),
(0,662,l),
(182,662,l),
(182,170,l),
(224,170,l),
(224,662,l),
(406,662,l),
(406,700,l)
);
}
);
width = 406;
}
);
unicode = 116;
},
{
glyphname = u;
lastChange = "2023-05-14 16:49:42 +0000";
layers = (
{
layerId = m01;
shapes = (
{
closed = 1;
nodes = (
(80,473,ls),
(80,382,o),
(131,329,o),
(218,329,cs),
(304,329,o),
(354,382,o),
(354,473,cs),
(354,698,l),
(307,698,l),
(307,473,ls),
(307,405,o),
(276,371,o),
(217,371,cs),
(158,371,o),
(128,405,o),
(128,473,cs),
(128,698,l),
(80,698,l)
);
}
);
width = 434;
}
);
unicode = 117;
},
{
glyphname = v;
lastChange = "2023-05-13 18:19:55 +0000";
layers = (
{
layerId = m01;
shapes = (
{
closed = 1;
nodes = (
(251,170,l),
(427,700,l),
(380,700,l),
(232,242,l),
(85,700,l),
(37,700,l),
(213,170,l)
);
}
);
width = 464;
}
);
unicode = 118;
},
{
glyphname = w;
lastChange = "2023-05-14 16:39:04 +0000";
layers = (
{
layerId = m01;
shapes = (
{
closed = 1;
nodes = (
(235,170,l),
(366,685,l),
(497,170,l),
(558,170,l),
(702,700,l),
(654,700,l),
(527,206,l),
(400,700,l),
(332,700,l),
(197,208,l),
(85,700,l),
(37,700,l),
(167,170,l)
);
}
);
width = 740;
}
);
unicode = 119;
},
{
glyphname = x;
lastChange = "2023-05-13 21:11:58 +0000";
layers = (
{
layerId = m01;
shapes = (
{
closed = 1;
nodes = (
(436,170,l),
(259,452,l),
(419,700,l),
(363,700,l),
(232,494,l),
(103,700,l),
(46,700,l),
(206,452,l),
(29,170,l),
(79,170,l),
(233,410,l),
(387,170,l)
);
}
);
width = 466;
}
);
unicode = 120;
},
{
glyphname = y;
lastChange = "2023-05-14 16:47:50 +0000";
layers = (
{
layerId = m01;
shapes = (
{
closed = 1;
nodes = (
(186,170,l),
(228,170,l),
(228,400,l),
(402,700,l),
(351,700,l),
(207,450,l),
(64,700,l),
(13,700,l),
(186,400,l)
);
}
);
width = 414;
}
);
unicode = 121;
},
{
glyphname = z;
lastChange = "2023-05-13 18:19:55 +0000";
layers = (
{
layerId = m01;
shapes = (
{
closed = 1;
nodes = (
(55,657,l),
(353,657,l),
(46,231,l),
(46,170,l),
(399,170,l),
(399,213,l),
(77,213,l),
(390,640,l),
(390,700,l),
(55,700,l)
);
}
);
width = 446;
}
);
unicode = 122;
},
{
glyphname = zero;
lastChange = "2023-05-14 16:19:03 +0000";
layers = (
{
layerId = m01;
shapes = (
{
closed = 1;
nodes = (
(378,162,o),
(455,279,o),
(455,444,cs),
(455,599,o),
(378,709,o),
(268,709,cs),
(158,709,o),
(80,599,o),
(80,444,cs),
(80,279,o),
(158,162,o),
(268,162,cs)
);
},
{
closed = 1;
nodes = (
(121,576,o),
(182,670,o),
(268,670,cs),
(354,670,o),
(414,576,o),
(414,444,cs),
(414,302,o),
(354,201,o),
(268,201,cs),
(182,201,o),
(121,302,o),
(121,444,cs)
);
}
);
width = 535;
}
);
unicode = 48;
},
{
glyphname = one;
lastChange = "2023-05-14 16:18:30 +0000";
layers = (
{
layerId = m01;
shapes = (
{
closed = 1;
nodes = (
(60,550,l),
(60,502,l),
(227,622,l),
(227,170,l),
(269,170,l),
(269,700,l)
);
}
);
width = 419;
}
);
unicode = 49;
},
{
glyphname = two;
lastChange = "2023-05-14 16:18:06 +0000";
layers = (
{
layerId = m01;
shapes = (
{
closed = 1;
nodes = (
(399,170,l),
(399,209,l),
(111,209,l),
(111,363,o),
(373,399,o),
(373,559,cs),
(373,647,o),
(313,709,o),
(229,709,cs),
(136,709,o),
(70,644,o),
(70,551,c),
(111,551,l),
(111,621,o),
(160,670,o),
(229,670,cs),
(289,670,o),
(332,624,o),
(332,559,c),
(332,423,o),
(70,388,o),
(70,209,c),
(70,170,l)
);
}
);
width = 469;
}
);
unicode = 50;
},
{
glyphname = three;
lastChange = "2023-05-14 16:17:01 +0000";
layers = (
{
layerId = m01;
shapes = (
{
closed = 1;
nodes = (
(159,418,l),
(256,418,o),
(325,375,o),
(325,314,cs),
(325,248,o),
(277,201,o),
(209,201,cs),
(150,201,o),
(102,234,o),
(93,280,c),
(50,280,l),
(63,211,o),
(129,162,o),
(209,162,cs),
(301,162,o),
(366,225,o),
(366,314,cs),
(366,393,o),
(280,449,o),
(159,449,c)
);
},
{
closed = 1;
nodes = (
(274,428,o),
(356,490,o),
(356,577,cs),
(356,654,o),
(295,709,o),
(209,709,cs),
(135,709,o),
(73,660,o),
(60,591,c),
(102,591,l),
(111,637,o),
(156,670,o),
(209,670,cs),
(271,670,o),
(315,631,o),
(315,577,cs),
(315,508,o),
(250,459,o),
(159,459,c),
(159,428,l)
);
}
);
width = 416;
}
);
unicode = 51;
},
{
glyphname = four;
lastChange = "2023-05-14 16:13:09 +0000";
layers = (
{
layerId = m01;
shapes = (
{
closed = 1;
nodes = (
(60,338,l),
(60,293,l),
(74,293,l),
(316,601,l),
(316,170,l),
(360,170,l),
(360,720,l)
);
},
{
closed = 1;
nodes = (
(60,293,l),
(465,293,l),
(465,332,l),
(60,332,l)
);
}
);
width = 505;
}
);
unicode = 52;
},
{
glyphname = five;
lastChange = "2023-05-14 16:10:59 +0000";
layers = (
{
layerId = m01;
shapes = (
{
closed = 1;
nodes = (
(76,401,l),
(116,438,o),
(179,464,o),
(228,464,cs),
(306,464,o),
(361,415,o),
(361,345,cs),
(361,265,o),
(306,209,o),
(228,209,cs),
(164,209,o),
(112,245,o),
(102,295,c),
(60,295,l),
(74,222,o),
(144,170,o),
(228,170,cs),
(330,170,o),
(402,243,o),
(402,345,cs),
(402,438,o),
(330,503,o),
(228,503,cs),
(179,503,o),
(116,476,o),
(76,437,c)
);
},
{
closed = 1;
nodes = (
(76,401,l),
(117,440,l),
(117,661,l),
(365,661,l),
(365,700,l),
(76,700,l)
);
}
);
width = 460;
}
);
unicode = 53;
},
{
glyphname = six;
lastChange = "2023-05-14 16:22:17 +0000";
layers = (
{
layerId = m01;
shapes = (
{
closed = 1;
nodes = (
(133,316,l),
(108,533,o),
(159,670,o),
(265,670,cs),
(325,670,o),
(367,640,o),
(375,591,c),
(417,591,l),
(404,663,o),
(345,709,o),
(265,709,cs),
(133,709,o),
(69,557,o),
(101,316,c)
);
},
{
closed = 1;
nodes = (
(168,509,o),
(100,438,o),
(100,337,cs),
(100,235,o),
(168,162,o),
(265,162,cs),
(365,162,o),
(435,235,o),
(435,337,c),
(435,438,o),
(365,509,o),
(265,509,cs)
);
},
{
closed = 1;
nodes = (
(394,257,o),
(341,201,o),
(265,201,cs),
(190,201,o),
(137,257,o),
(137,337,cs),
(137,415,o),
(190,470,o),
(265,470,cs),
(341,470,o),
(394,415,o),
(394,337,c)
);
}
);
width = 505;
}
);
unicode = 54;
},
{
glyphname = seven;
lastChange = "2023-05-13 22:49:08 +0000";
layers = (
{
layerId = m01;
shapes = (
{
closed = 1;
nodes = (
(60,700,l),
(60,655,l),
(347,655,l),
(137,170,l),
(179,170,l),
(409,700,l)
);
}
);
width = 469;
}
);
unicode = 55;
},
{
glyphname = eight;
lastChange = "2023-05-14 15:58:48 +0000";
layers = (
{
layerId = m01;
shapes = (
{
closed = 1;
nodes = (
(161,708,o),
(100,649,o),
(100,566,cs),
(100,485,o),
(161,428,o),
(247,428,cs),
(334,428,o),
(395,485,o),
(395,566,c),
(395,649,o),
(334,708,o),
(247,708,cs)
);
},
{
closed = 1;
nodes = (
(354,507,o),
(309,465,o),
(247,465,cs),
(186,465,o),
(141,507,o),
(141,566,cs),
(141,626,o),
(186,669,o),
(247,669,cs),
(309,669,o),
(354,626,o),
(354,566,c)
);
},
{
closed = 1;
nodes = (
(149,464,o),
(80,404,o),
(80,319,cs),
(80,234,o),
(149,174,o),
(247,174,cs),
(345,174,o),
(415,234,o),
(415,319,c),
(415,404,o),
(345,464,o),
(247,464,cs)
);
},
{
closed = 1;
nodes = (
(374,258,o),
(321,213,o),
(247,213,cs),
(174,213,o),
(121,258,o),
(121,319,cs),
(121,383,o),
(174,428,o),
(247,428,cs),
(321,428,o),
(374,383,o),
(374,319,c)
);
}
);
width = 495;
}
);
unicode = 56;
},
{
glyphname = nine;
lastChange = "2023-05-14 16:22:32 +0000";
layers = (
{
layerId = m01;
shapes = (
{
closed = 1;
nodes = (
(395,554,l),
(420,337,o),
(369,200,o),
(263,200,cs),
(203,200,o),
(161,230,o),
(153,279,c),
(111,279,l),
(124,207,o),
(183,161,o),
(263,161,cs),
(395,161,o),
(459,313,o),
(427,554,c)
);
},
{
closed = 1;
nodes = (
(360,361,o),
(428,432,o),
(428,533,cs),
(428,635,o),
(360,708,o),
(263,708,cs),
(163,708,o),
(93,635,o),
(93,533,c),
(93,432,o),
(163,361,o),
(263,361,cs)
);
},
{
closed = 1;
nodes = (
(134,613,o),
(187,669,o),
(263,669,cs),
(338,669,o),
(391,613,o),
(391,533,cs),
(391,455,o),
(338,400,o),
(263,400,cs),
(187,400,o),
(134,455,o),
(134,533,c)
);
}
);
width = 505;
}
);
unicode = 57;
},
{
glyphname = space;
lastChange = "2023-05-14 16:23:59 +0000";
layers = (
{
layerId = m01;
shapes = (
{
closed = 1;
nodes = (
(0,688,l),
(265,688,l),
(265,700,l),
(0,700,l)
);
},
{
closed = 1;
nodes = (
(0,518,l),
(265,518,l),
(265,530,l),
(0,530,l)
);
},
{
closed = 1;
nodes = (
(0,348,l),
(265,348,l),
(265,360,l),
(0,360,l)
);
},
{
closed = 1;
nodes = (
(0,178,l),
(265,178,l),
(265,190,l),
(0,190,l)
);
},
{
closed = 1;
nodes = (
(0,8,l),
(265,8,l),
(265,20,l),
(0,20,l)
);
}
);
width = 265;
}
);
unicode = 32;
},
{
glyphname = period;
lastChange = "2023-05-14 16:30:35 +0000";
layers = (
{
layerId = m01;
shapes = (
{
closed = 1;
nodes = (
(0,688,l),
(405,688,l),
(405,700,l),
(0,700,l)
);
},
{
closed = 1;
nodes = (
(0,518,l),
(405,518,l),
(405,530,l),
(0,530,l)
);
},
{
closed = 1;
nodes = (
(0,348,l),
(405,348,l),
(405,360,l),
(0,360,l)
);
},
{
closed = 1;
nodes = (
(0,178,l),
(405,178,l),
(405,190,l),
(0,190,l)
);
},
{
closed = 1;
nodes = (
(0,8,l),
(405,8,l),
(405,20,l),
(0,20,l)
);
},
{
closed = 1;
nodes = (
(238,187,o),
(274,223,o),
(274,269,cs),
(274,315,o),
(238,351,o),
(192,351,cs),
(146,351,o),
(110,315,o),
(110,269,cs),
(110,223,o),
(146,187,o),
(192,187,cs)
);
}
);
width = 405;
}
);
unicode = 46;
},
{
glyphname = comma;
lastChange = "2023-05-14 16:32:23 +0000";
layers = (
{
layerId = m01;
shapes = (
{
closed = 1;
nodes = (
(0,688,l),
(405,688,l),
(405,700,l),
(0,700,l)
);
},
{
closed = 1;
nodes = (
(0,518,l),
(405,518,l),
(405,530,l),
(0,530,l)
);
},
{
closed = 1;
nodes = (
(0,348,l),
(405,348,l),
(405,360,l),
(0,360,l)
);
},
{
closed = 1;
nodes = (
(0,178,l),
(405,178,l),
(405,190,l),
(0,190,l)
);
},
{
closed = 1;
nodes = (
(0,8,l),
(405,8,l),
(405,20,l),
(0,20,l)
);
},
{
closed = 1;
nodes = (
(124,8,l),
(159,8,l),
(239,273,l),
(184,273,l)
);
}
);
width = 405;
}
);
unicode = 44;
},
{
glyphname = colon;
lastChange = "2023-05-14 16:30:02 +0000";
layers = (
{
layerId = m01;
shapes = (
{
closed = 1;
nodes = (
(0,688,l),
(405,688,l),
(405,700,l),
(0,700,l)
);
},
{
closed = 1;
nodes = (
(0,518,l),
(405,518,l),
(405,530,l),
(0,530,l)
);
},
{
closed = 1;
nodes = (
(0,348,l),
(405,348,l),
(405,360,l),
(0,360,l)
);
},
{
closed = 1;
nodes = (
(0,178,l),
(405,178,l),
(405,190,l),
(0,190,l)
);
},
{
closed = 1;
nodes = (
(0,8,l),
(405,8,l),
(405,20,l),
(0,20,l)
);
},
{
closed = 1;
nodes = (
(222,227,o),
(234,239,o),
(234,269,cs),
(234,299,o),
(222,311,o),
(192,311,cs),
(162,311,o),
(150,299,o),
(150,269,cs),
(150,239,o),
(162,227,o),
(192,227,cs)
);
},
{
closed = 1;
nodes = (
(222,398,o),
(234,410,o),
(234,440,cs),
(234,470,o),
(222,482,o),
(192,482,cs),
(162,482,o),
(150,470,o),
(150,440,cs),
(150,410,o),
(162,398,o),
(192,398,cs)
);
}
);
width = 405;
}
);
unicode = 58;
},
{
glyphname = semicolon;
lastChange = "2023-05-14 16:32:15 +0000";
layers = (
{
layerId = m01;
shapes = (
{
closed = 1;
nodes = (
(0,688,l),
(405,688,l),
(405,700,l),
(0,700,l)
);
},
{
closed = 1;
nodes = (
(0,518,l),
(405,518,l),
(405,530,l),
(0,530,l)
);
},
{
closed = 1;
nodes = (
(0,348,l),
(405,348,l),
(405,360,l),
(0,360,l)
);
},
{
closed = 1;
nodes = (
(0,178,l),
(405,178,l),
(405,190,l),
(0,190,l)
);
},
{
closed = 1;
nodes = (
(0,8,l),
(405,8,l),
(405,20,l),
(0,20,l)
);
},
{
closed = 1;
nodes = (
(222,398,o),
(234,410,o),
(234,440,cs),
(234,470,o),
(222,482,o),
(192,482,cs),
(162,482,o),
(150,470,o),
(150,440,cs),
(150,410,o),
(162,398,o),
(192,398,cs)
);
},
{
closed = 1;
nodes = (
(124,8,l),
(159,8,l),
(239,273,l),
(184,273,l)
);
}
);
width = 405;
}
);
unicode = 59;
},
{
glyphname = dieresiscomb;
lastChange = "2023-05-13 20:52:33 +0000";
layers = (
{
layerId = m01;
shapes = (
{
closed = 1;
nodes = (
(307,615,o),
(328,636,o),
(328,661,cs),
(328,686,o),
(307,707,o),
(282,707,cs),
(257,707,o),
(236,686,o),
(236,661,cs),
(236,636,o),
(257,615,o),
(282,615,cs)
);
},
{
closed = 1;
nodes = (
(536,615,o),
(557,636,o),
(557,661,cs),
(557,686,o),
(536,707,o),
(511,707,cs),
(486,707,o),
(465,686,o),
(465,661,cs),
(465,636,o),
(486,615,o),
(511,615,cs)
);
}
